<svg xmlns="http://www.w3.org/2000/svg" width="1400" height="850" viewBox="0 0 1400 850">
<rect width="1400" height="850" fill="#0f172a"/><rect width="238" height="850" fill="#111d35"/><text x="34" y="58" fill="#65b7ff" font-size="25" font-family="Microsoft YaHei" font-weight="bold">智能排考系统</text><g font-family="Microsoft YaHei" font-size="17"><rect x="20" y="112" width="198" height="52" rx="8" fill="#1d4f83"/><text x="52" y="145" fill="white">排考总览</text><text x="52" y="205" fill="#91a4bd">考试场次</text><text x="52" y="265" fill="#91a4bd">教师工作量</text><text x="52" y="325" fill="#91a4bd">导出中心</text></g><text x="278" y="58" fill="white" font-size="26" font-family="Microsoft YaHei" font-weight="bold">排考总览</text><text x="1135" y="56" fill="#93a8c2" font-size="15" font-family="Microsoft YaHei">2025 秋季考试</text>
<g font-family="Microsoft YaHei"><rect x="278" y="92" width="250" height="112" rx="12" fill="#172640" stroke="#233b5f"/><text x="302" y="128" fill="#93a8c2" font-size="15">考试场次</text><text x="302" y="177" fill="white" font-size="32" font-weight="bold">4</text><rect x="550" y="92" width="250" height="112" rx="12" fill="#172640" stroke="#233b5f"/><text x="574" y="128" fill="#93a8c2" font-size="15">已安排监考</text><text x="574" y="177" fill="#66e0ad" font-size="32" font-weight="bold">312</text><rect x="822" y="92" width="250" height="112" rx="12" fill="#172640" stroke="#233b5f"/><text x="846" y="128" fill="#93a8c2" font-size="15">备选待命</text><text x="846" y="177" fill="#65b7ff" font-size="32" font-weight="bold">216</text><rect x="1094" y="92" width="250" height="112" rx="12" fill="#172640" stroke="#233b5f"/><text x="1118" y="128" fill="#93a8c2" font-size="15">人员缺口</text><text x="1118" y="177" fill="#ffd166" font-size="32" font-weight="bold">0</text></g>
<rect x="278" y="232" width="780" height="570" rx="12" fill="#172640" stroke="#233b5f"/><text x="304" y="272" fill="white" font-size="20" font-family="Microsoft YaHei" font-weight="bold">监考安排｜场次 01</text><rect x="304" y="298" width="728" height="44" fill="#203555"/><g font-family="Microsoft YaHei" font-size="14" fill="#b9cbe0"><text x="322" y="326">考场</text><text x="420" y="326">第一监考</text><text x="590" y="326">监考人员</text><text x="760" y="326">备选待命</text></g><g font-family="Microsoft YaHei" font-size="15" fill="#e7eef8"><text x="322" y="380">C101</text><text x="420" y="380">张三</text><text x="590" y="380">李四　王五</text><text x="760" y="380" fill="#70d6ad">赵六　孙七</text><text x="322" y="438">C102</text><text x="420" y="438">钱九</text><text x="590" y="438">周八　吴十</text><text x="760" y="438" fill="#70d6ad">郑一　王二</text><text x="322" y="496">C103</text><text x="420" y="496">陈三</text><text x="590" y="496">刘四　赵五</text><text x="760" y="496" fill="#70d6ad">孙六　周七</text></g><rect x="304" y="548" width="728" height="62" rx="8" fill="#3b331d"/><text x="324" y="586" fill="#ffd166" font-size="15" font-family="Microsoft YaHei">⚠ C104 缺少 1 名监考教师</text><rect x="304" y="690" width="160" height="44" rx="7" fill="#23659e"/><text x="348" y="718" fill="white" font-size="15" font-family="Microsoft YaHei">更换人员</text><rect x="480" y="690" width="160" height="44" rx="7" fill="#23659e"/><text x="523" y="718" fill="white" font-size="15" font-family="Microsoft YaHei">查看工作量</text>
<rect x="1082" y="232" width="262" height="570" rx="12" fill="#111d35" stroke="#233b5f"/><text x="1108" y="272" fill="white" font-size="20" font-family="Microsoft YaHei" font-weight="bold">运行日志</text><g font-family="Consolas, Microsoft YaHei" font-size="14" fill="#a9bed6"><text x="1108" y="320">09:00　读取模板完成</text><text x="1108" y="362">09:01　场次 01 排考完成</text><text x="1108" y="404">09:01　经验规则 27/27</text><text x="1108" y="446">09:01　男女搭配 22/27</text><text x="1108" y="488">09:01　部门分散 26/27</text><text x="1108" y="530" fill="#70d6ad">09:01　✓ 无时间冲突</text><text x="1108" y="572" fill="#ffd166">09:01　⚠ 1 个规则未满足</text></g><rect x="1108" y="704" width="210" height="44" rx="7" fill="#23659e"/><text x="1168" y="732" fill="white" font-size="15" font-family="Microsoft YaHei">导出安排表</text></svg>
